<?xml version="1.0" encoding="UTF-8"?>
<svg id="Cloud_Selection" data-name="Cloud Selection" xmlns="http://www.w3.org/2000/svg" viewBox="0 0 1200.16 900">
  <defs>
    <style>
      .cls-1 {
        fill: #fff30b;
      }

      .cls-1, .cls-2, .cls-3 {
        stroke: #23008b;
        stroke-miterlimit: 10;
      }

      .cls-2 {
        fill: #0d2d06;
      }

      .cls-3 {
        fill: #290630;
      }

      .cls-4 {
        fill: #ff454a;
      }
    </style>
  </defs>
  <path id="cloudGreen" class="cls-2" d="m78.96,296.61h31.54l38.46,12,15.54-6,75.95,13.07,56.71-9.53h118.57v-24.51l-55.26-12.91-129.5-6.11c-12.76-5.55-26.78-11-42-16-24.58-8.08-47.53-13.43-68-17-4.9-4.52-10.55-9.27-17-14-5.2-3.82-10.24-7.13-15-10,6.16-1.29,10.64-6.35,11-12,.43-6.83-5.21-13.42-13-14,12.95,6.37,38.8,16.66,71,13,11.31-1.28,21.06-4.02,29-7,6.63,5.92,18.29,14.72,35,20,26.36,8.33,48.99,2.76,58,0,5.89,3.44,15.44,8.04,28,10,9.01,1.41,16.79,1.02,22.5.28,1.54-3.5,5.77-11.72,14.5-15.28,12.81-5.24,30.53,1.5,41,18l29.76,3.15,7.24,10.85,23-4,24.5.2,20.39,18.84c7.06.03,13.24-4.55,15.11-11.03,1.65-5.71-.31-12.01-5-16,6.67,2.33,13.33,4.67,20,7,1.21,2.08,4.79,7.63,12,11,7.69,3.6,14.7,2.47,17,2,.7,1.64,4.19,9.33,13,13,7.08,2.95,13.42,1.57,15.5,1.02,2.83,2.99,5.67,5.99,8.5,8.98,7.15,4.37,18.71,10.22,34,13,20.4,3.71,37.13.1,45.98-2.5,6.65-8.82,13.3-17.64,19.96-26.47,2.56,1.88,13.58,9.55,29.07,7.97,16.59-1.69,26.15-12.76,28-15,5.67-1.33,11.33-2.67,17-4,.72.82,12.69,14.03,29,11,8.43-1.56,13.85-6.69,16-9,2.26,1.37,22.04,12.93,42,4,8.09-3.62,13.2-9.26,16-13-2.67-11-5.33-22-8-33,4.08,8.92,14,13,22,10,6.38-2.39,10.78-9,10.85-16.5,8.3,4.57,27.95,13.91,54.15,12.5,20.12-1.09,35.23-8.04,43.28-12.5,12.29,1.16,36.88,1.72,63.72-10.5,16.06-7.31,27.58-16.77,35-24,7.03,3.4,18.79,8,34,9,12.63.83,23.05-1.12,30-3-6.5,8.38-7.67,19.42-3,28,4.92,9.05,14.27,11.57,16,12,10.67,1.67,21.33,3.33,32,5l5.68,98.5c-17.61,9-39.24,17.99-64.68,24.5-64.34,16.47-120.01,8.64-153,1-7.25,5.08-25.43,16.32-51,17-18.07.48-32.19-4.53-40-8,6.54,8.5,8.15,19.69,4,29-5.16,11.58-18.39,18.44-32,16-20.14-1.02-42.24-1.2-66,0-29.45,1.49-56.27,4.84-80,9-14.65-2.8-32.97-4.88-54-4-36.44,1.52-65.54,11.28-84.5,19.5-43.37-17.18-79.86-24.76-105.5-28.5-49.42-7.2-65.06-1.07-112.5-12.11-40.33-9.39-46.28-17.84-83.5-26.89-44.38-10.8-82.44-10.1-107-8"/>
  <path id="cloudYellow" class="cls-1" d="m658.26,206.24c-.62-3.92.18-5.38,1-6,1.69-1.28,4.16.51,6-1,1.49-1.22.63-3.03,2-4,1.72-1.22,4.1.91,7,1,2.19.07,5.38-1.01,9.41-6.5,1.42,1.7,4.2,4.54,8.59,6.5,6.01,2.68,11.47,2.11,13.72,1.75-2.25,2.01-5.81,4.68-10.72,6.25-4.29,1.38-6.89,1.05-13.14,2-3.05.47-7.5,1.32-12.86,3"/>
  <path id="cloudPurple" class="cls-3" d="m294.56,139.37c-5.16-4.69-6.57-5.74-6.7-5.61-.28.28,5.11,6.5,6.7,5.61,1.09-.61,1.42-5.17,1.69-6.24.03-.12.09-.32.23-.54,0,0,.14-.23.36-.41.66-.56,17.04,6.33,18.73,4.18.33-.42-.13-.87.07-3.64.07-.98.18-2.45.41-2.47.64-.06-.82,10.85,4.51,15.11,5.44,4.34,16.68.77,16.79,1.64.01.09-.11.1-.16.25-.46,1.46,9.48,6.1,9.01,7.43-.01.04-.02.02-.75,1.25-.15.25-.22.37-.22.39-.08,1.08,7.4,2.15,7.44,3.91,0,.19-.15.79-.47,1.99-.14.54-.15.54-.14.6.29,1.13,5.23.14,5.94,1.77.05.11.14.73.31,1.99.11.76.1.81.14.89.66,1.38,6.11-.1,6.11-.1,12.24-3.32,18.36-4.98,20.72-5.18,8.75-.71,8.87,4.52,20.76,5.18,6.53.36,7.04-1.19,16.1-1.52,9.51-.35,11.26,1.28,19.42,1.52,16.26.49,29.23-5.36,29-7-.17-1.23-7.87-.99-8.27-3.48-.11-.7.46-.99.27-1.52-.61-1.76-6.93.95-12.38-1.64-3.78-1.8-3.08-4.21-6.62-5.36-3.7-1.2-4.92,1.3-10.4.73-1.78-.19-5.73-.65-8.6-3.73-1.99-2.13-2.56-4.54-2.68-5.08-1.03-4.69,1.55-8.4.68-8.92-.7-.42-1.9,2.25-4.27,3-5.78,1.83-13.06-9.55-15.73-8-2.02,1.17,1.28,8.19-2.05,10.81-1.23.97-3.1,1.12-3.95,1.19,0,0-2.5.2-4.76-.8-4.78-2.1-2.86-8.56-7.24-12.2-4.28-3.55-8.82.36-17.44-3.14-3.65-1.48-5.06-3.08-7.65-4.86-9.78-6.74-16.66-2.5-36.81-6.07-15.41-2.73-24.23-4.93-24.23-4.93-2.98-.84-8.15-2.38-14.87-2-2.51.14-6.37.4-10.6,2.47-2.92,1.43-5.81,3.63-6.02,3.78-3.98,3.04-4.48,4.56-6.33,4.56-2.25.01-2.48-2.22-6.05-3.81-.63-.28-4.64-2-8.36-.51-3.17,1.26-5.47,4.57-5.64,6.51-.35,4.06,7.93,10.61,47.08,21.39"/>
  <path id="cloudRed" class="cls-4" d="m.24,326.85c2.1-.69,7.91-2.28,14.82-.17,5.86,1.79,9.48,5.32,11,7,8.51-2.42,15.27-2.47,20-2,5,.49,8.4,1.62,14,1,5.3-.59,9.51-2.41,12.3-3.91,7.97,2.08,17.63,3.99,28.7,4.91,10.59.88,20.05.66,28,0,6.22-1.21,14.02-2.17,23-2,7.22.13,13.59.97,18.91,2,4.82.31,10.23.91,16.09,2,5.96,1.11,11.32,2.52,16,4,6.07.47,12.41,1.12,19,2,4.48.6,8.81,1.27,13,2,2.64,3.42,9.4,11.18,21,15,6.95,2.29,13.09,2.32,17,2,.02.37.59,9.27,8,13,4.39,2.21,8.66,1.33,10,1,8.18,1.02,13.04,3.67,16,6,1.92,1.51,3.75,3.44,7,4,1.47.25,2.1.03,8,0,3.45-.02,3.34.05,4,0,2.47-.2,5.92-1.41,10-6,.82-.72,2.18-1.7,4-2,6.52-1.07,10.47,7.95,17,8,2.44.02,5.89-1.21,10.09-7,2.18-.4,5.66-.7,8.91,1,5.64,2.94,4.8,8.83,9,13,5.84,5.8,14.94,1.83,30,2,6.85.08,16.44,1.03,28,5,6.28.92,15.62,2.13,27,3,22.61,1.73,36.05.82,51,1,13.94.17,33.72,1.35,58,6-7,1.33-14,2.67-21,4l-20,5h-67l-40-9-52,13c-5.96.37-14.34.25-24-2-8.91-2.07-15.99-5.27-21-8-2.99,1.19-7.06,2.45-12,3-6.71.75-12.3-.12-16-1-4.12.71-9.2,1.22-15,1-8.71-.34-15.88-2.21-21-4-4.85.4-11.42.43-19-1-8.6-1.63-15.38-4.56-20-7-7-.67-14-1.33-21-2-8.12,1.79-18.68,3.3-31,3-16.32-.39-29.7-3.81-39-7-5.1,2.4-16.1,6.67-30,5-7.19-.86-12.96-3.05-17-5-2.41,1.7-6.01,3.6-10,3-2.43-.36-3.02-1.35-7-3-4.22-1.74-5.82-1.57-11-3-2.65-.73-6.46-1.95-11-4-7.33,1.33-14.67,2.67-22,4l-10,6c-5.41-1.1-11.44-1.87-18-2-1.36-.03-2.69-.03-4,0,.06-23.61.12-47.22.18-70.83Z"/>
</svg>